<svg baseProfile="full" height="1000" version="1.1" width="2302.5850929940457" xmlns="http://www.w3.org/2000/svg" xmlns:ev="http://www.w3.org/2001/xml-events" xmlns:xlink="http://www.w3.org/1999/xlink"><defs /><g id="lines" stroke="black"><line x1="431.73470493638354" x2="431.73470493638354" y1="117.72455089820357" y2="20.0" /><line x1="431.73470493638354" x2="827.4915177947353" y1="20.0" y2="20.0" /><line x1="191.88209108283715" x2="191.88209108283715" y1="980.0" y2="117.72455089820357" /><line x1="191.88209108283715" x2="431.73470493638354" y1="117.72455089820357" y2="117.72455089820357" /><line x1="383.7641821656743" x2="383.7641821656743" y1="980.0" y2="117.72455089820357" /><line x1="383.7641821656743" x2="431.73470493638354" y1="117.72455089820357" y2="117.72455089820357" /><line x1="671.58731878993" x2="671.58731878993" y1="152.2155688622754" y2="117.72455089820357" /><line x1="671.58731878993" x2="431.73470493638354" y1="117.72455089820357" y2="117.72455089820357" /><line x1="575.6462732485114" x2="575.6462732485114" y1="980.0" y2="152.2155688622754" /><line x1="575.6462732485114" x2="671.58731878993" y1="152.2155688622754" y2="152.2155688622754" /><line x1="767.5283643313486" x2="767.5283643313486" y1="980.0" y2="152.2155688622754" /><line x1="767.5283643313486" x2="671.58731878993" y1="152.2155688622754" y2="152.2155688622754" /><line x1="1223.248330653087" x2="1223.248330653087" y1="324.6706586826348" y2="20.0" /><line x1="1223.248330653087" x2="827.4915177947353" y1="20.0" y2="20.0" /><line x1="959.4104554141858" x2="959.4104554141858" y1="980.0" y2="324.6706586826348" /><line x1="959.4104554141858" x2="1223.248330653087" y1="324.6706586826348" y2="324.6706586826348" /><line x1="1487.086205891988" x2="1487.086205891988" y1="382.1556886227545" y2="324.6706586826348" /><line x1="1487.086205891988" x2="1223.248330653087" y1="324.6706586826348" y2="324.6706586826348" /><line x1="1151.2925464970228" x2="1151.2925464970228" y1="980.0" y2="382.1556886227545" /><line x1="1151.2925464970228" x2="1487.086205891988" y1="382.1556886227545" y2="382.1556886227545" /><line x1="1439.1156831212786" x2="1439.1156831212786" y1="589.1017964071857" y2="382.1556886227545" /><line x1="1439.1156831212786" x2="1487.086205891988" y1="382.1556886227545" y2="382.1556886227545" /><line x1="1343.17463757986" x2="1343.17463757986" y1="980.0" y2="589.1017964071857" /><line x1="1343.17463757986" x2="1439.1156831212786" y1="589.1017964071857" y2="589.1017964071857" /><line x1="1535.0567286626972" x2="1535.0567286626972" y1="980.0" y2="589.1017964071857" /><line x1="1535.0567286626972" x2="1439.1156831212786" y1="589.1017964071857" y2="589.1017964071857" /><line x1="1822.879865286953" x2="1822.879865286953" y1="801.7964071856287" y2="382.1556886227545" /><line x1="1822.879865286953" x2="1487.086205891988" y1="382.1556886227545" y2="382.1556886227545" /><line x1="1726.9388197455344" x2="1726.9388197455344" y1="980.0" y2="801.7964071856287" /><line x1="1726.9388197455344" x2="1822.879865286953" y1="801.7964071856287" y2="801.7964071856287" /><line x1="1918.8209108283716" x2="1918.8209108283716" y1="980.0" y2="801.7964071856287" /><line x1="1918.8209108283716" x2="1822.879865286953" y1="801.7964071856287" y2="801.7964071856287" /></g><g font-size="14" text-anchor="start" /><g font-size="14" text-anchor="end" /><g font-size="14" text-anchor="middle"><text x="191.88209108283715" y="1000.0">CHB.1014.1.1000G</text><text x="383.7641821656743" y="1000.0">Africa_Congo.107.1.SGDP</text><text x="575.6462732485114" y="1000.0">ASM.Europe_EasternEurope.303.1.EGDP</text><text x="767.5283643313486" y="1000.0">CHB.1027.2.1000G</text><text x="959.4104554141858" y="1000.0">Oceania_PapuaNewGuinea.2451.2.SGDP</text><text x="1151.2925464970228" y="1000.0">MSL.2378.1.1000G</text><text x="1343.17463757986" y="1000.0">WestEurasia_Finland.3014.2.SGDP</text><text x="1535.0567286626972" y="1000.0">YRI.3179.1.1000G</text><text x="1726.9388197455344" y="1000.0">FIN.1452.1.1000G</text><text x="1918.8209108283716" y="1000.0">ITU.1971.1.1000G</text></g><circle cx="827.4915177947353" cy="20.0" fill="black" r="3" /><circle cx="431.73470493638354" cy="117.72455089820357" fill="black" r="3" /><circle cx="191.88209108283715" cy="980.0" fill="black" r="3" /><circle cx="383.7641821656743" cy="980.0" fill="black" r="3" /><circle cx="671.58731878993" cy="152.2155688622754" fill="black" r="3" /><circle cx="575.6462732485114" cy="980.0" fill="black" r="3" /><circle cx="767.5283643313486" cy="980.0" fill="black" r="3" /><circle cx="1223.248330653087" cy="324.6706586826348" fill="black" r="3" /><circle cx="959.4104554141858" cy="980.0" fill="black" r="3" /><circle cx="1487.086205891988" cy="382.1556886227545" fill="black" r="3" /><circle cx="1151.2925464970228" cy="980.0" fill="black" r="3" /><circle cx="1439.1156831212786" cy="589.1017964071857" fill="black" r="3" /><circle cx="1343.17463757986" cy="980.0" fill="black" r="3" /><circle cx="1535.0567286626972" cy="980.0" fill="black" r="3" /><circle cx="1822.879865286953" cy="801.7964071856287" fill="black" r="3" /><circle cx="1726.9388197455344" cy="980.0" fill="black" r="3" /><circle cx="1918.8209108283716" cy="980.0" fill="black" r="3" /><g alignment-baseline="middle" font-size="14" font-style="italic" text-anchor="start"><text x="1492.086205891988" y="367.49401197604794">71</text><text x="1492.086205891988" y="348.33233532934133">73</text><text x="1444.1156831212786" y="490.1287425149701">72</text></g><g alignment-baseline="middle" font-size="14" font-style="italic" text-anchor="end"><text x="426.73470493638354" y="73.36227544910179">70</text></g><rect fill="red" height="6" width="6" x="428.73470493638354" y="65.86227544910179" /><rect fill="red" height="6" width="6" x="1484.086205891988" y="359.99401197604794" /><rect fill="red" height="6" width="6" x="1484.086205891988" y="340.83233532934133" /><rect fill="red" height="6" width="6" x="1436.1156831212786" y="482.6287425149701" /></svg>